<?xml version="1.0" encoding="UTF-8" standalone="no"?>
<svg width="2166px" height="1046px" viewBox="0 0 2166 1046" version="1.1" xmlns="http://www.w3.org/2000/svg" xmlns:xlink="http://www.w3.org/1999/xlink" xmlns:sketch="http://www.bohemiancoding.com/sketch/ns">
    <title>early</title>
    <description>Created with Sketch (http://www.bohemiancoding.com/sketch)</description>
    <defs></defs>
    <g id="Page-1" stroke="none" stroke-width="1" fill="none" fill-rule="evenodd" sketch:type="MSPage">
        <path d="M123.225881,271.99984 L123.225881,1014.3162 L446.921529,972.845494 L446.921529,236.001133 L123.225881,271.99984 Z" id="Rectangle-1" stroke="#979797" fill="#D8D8D8" sketch:type="MSShapeGroup" transform="translate(285.225881, 624.999840) rotate(6.000000) translate(-285.225881, -624.999840) "></path>
        <path d="M1501,611.945257 L1501,642.627527 C1501,647.085018 1501,656 1501,656 L1951.62033,626.582958 C1951.62033,626.582958 1969,607.664934 1969,599.986795 C1969,593.137281 1951.62033,583 1951.62033,583 L1501,611.945257 Z" id="Rectangle-3" stroke="#979797" fill="#C6966C" sketch:type="MSShapeGroup"></path>
        <path d="M683,319 L427.909805,536.645264 L1388.61049,467.936722 L1597.83327,213.488724 L683,319 Z" id="Rectangle-2" stroke="#979797" fill="#E4A368" sketch:type="MSShapeGroup"></path>
        <path d="M1500,664 L1447.21511,930.009827 L1942.63704,915.367828 L1942.63705,616.474243 L1500,664 Z" id="Rectangle-9" stroke="#979797" fill="#D8D8D8" sketch:type="MSShapeGroup"></path>
        <path d="M1578.77796,369.898926 L1512.90981,590.645264 L1937.3087,559.892227 L2005.04707,344.189194 L1578.77796,369.898926 Z" id="Rectangle-2" stroke="#979797" fill="#E4A368" sketch:type="MSShapeGroup"></path>
        <path d="M497.339764,242.768219 L482.836838,467.874542 L644.918411,313.827576 L666.051331,271.786499 L497.339764,242.768219 Z" id="Rectangle-6" stroke="#979797" fill="#B5B1B1" sketch:type="MSShapeGroup"></path>
        <path d="M1946.48809,585.804535 L1946.48809,896.02182 L2074.66361,791.640533 C2074.66361,791.640533 2084.0226,609.74834 2074.66361,530.861511 C2067.06106,466.779676 2023.77899,362.734528 2023.77899,362.734528 L1946.48809,585.804535 Z" id="Rectangle-6" stroke="#979797" fill="#B5B1B1" sketch:type="MSShapeGroup"></path>
        <path d="M1401.83684,481.755539 L1401.83684,946.874542 L1434.78107,917.614517 C1434.78107,917.614517 1479.07925,679.79466 1499.61116,595.206955 C1525.17103,489.904994 1573.0564,347.945526 1573.0564,347.945526 C1573.0564,347.945526 1649.72214,338.515755 1651.67818,330.121605 C1657.83184,303.713706 1597.38548,243.539383 1597.38548,243.539383 L1401.83684,481.755539 Z" id="Rectangle-6" stroke="#979797" fill="#B5B1B1" sketch:type="MSShapeGroup"></path>
        <path d="M425,613 L425,1008 L1375.64148,959.529121 L1390.62573,545.520973 L425,613 Z" id="Rectangle-9" stroke="#979797" fill="#D8D8D8" sketch:type="MSShapeGroup"></path>
        <path d="M418,532 L418,589.109541 C417.999997,597.406361 418,614 418,614 L1404.84235,559.245453 C1404.84235,559.245453 1442.9032,524.032946 1442.9032,509.741468 C1442.90319,496.992327 1404.84235,478.123596 1404.84235,478.123596 L418,532 Z" id="Rectangle-3" stroke="#979797" fill="#C6966C" sketch:type="MSShapeGroup"></path>
        <path d="M683.296875,304.671875 L1604.97644,226.806898 L1402.18359,478.558591" id="Path-1" stroke="#000000" stroke-width="5" sketch:type="MSShapeGroup"></path>
        <path d="M1503.53125,616.890625 L1606.22656,362.023438 L2018.64062,332 L1941.57812,577.304688" id="Path-127" stroke="#000000" stroke-width="5" sketch:type="MSShapeGroup"></path>
        <path d="M1515.79688,644.257813 C1515.79688,644.257813 1505.09048,701.754125 1500.13572,712.385788 L1475.32103,765.631818 L1472.79404,861.863201 L1451,935.35995" id="Path-128" stroke="#000000" stroke-width="5" sketch:type="MSShapeGroup"></path>
        <path d="M736.363281,274.964844 L482.886719,228.675781 L150.5625,249.320312 L77.3203125,987.601562" id="Path-130" stroke="#000000" stroke-width="5" sketch:type="MSShapeGroup"></path>
        <path d="M737.46875,274.464844 L737.46875,304.005859" id="Path-131" stroke="#000000" stroke-width="5" sketch:type="MSShapeGroup"></path>
        <path d="M485.132812,240.003906 L472.5,493.5" id="Path-132" stroke="#000000" stroke-width="5" sketch:type="MSShapeGroup"></path>
        <path d="M430.5,612.5 L403.5,987.5" id="Path-132" stroke="#000000" stroke-width="5" sketch:type="MSShapeGroup"></path>
        <path d="M1406.77344,477.25 L424.742187,540.53125 L686.460938,302.914062" id="Path-133" stroke="#000000" stroke-width="5" sketch:type="MSShapeGroup"></path>
        <path d="M1605.01953,231.460937 L1669.5,351.5" id="Path-135" stroke="#000000" stroke-width="5" sketch:type="MSShapeGroup"></path>
        <path d="M2029.76172,338.613281 L2071.46094,528.222656 L2076.89062,803.828125" id="Path-136" stroke="#000000" stroke-width="5" sketch:type="MSShapeGroup"></path>
        <path d="M429.507813,547.015625 C429.507813,547.015625 383.648438,611.527354 454.039063,611.527344 C524.429688,611.527344 811.169341,604.925179 1035.79686,589.769531 C1260.42438,574.613884 1342.48881,566.968832 1410.19139,547.015625 C1460.83257,532.090732 1433.23368,497.130946 1410.19139,477.699219" id="Path-137" stroke="#000000" stroke-width="5" sketch:type="MSShapeGroup"></path>
        <path d="M1425.58203,544.998643 L1425.58203,544.998643 L1425.58203,544.998643 Z" id="Path-138" stroke="#000000" stroke-width="5" sketch:type="MSShapeGroup"></path>
        <path d="M1399.58594,550.154297 L1383.95117,940.671875" id="Path-139" stroke="#000000" stroke-width="5" sketch:type="MSShapeGroup"></path>
        <path d="M1500.50391,616.5625 C1500.50391,616.5625 1501.08004,652.064606 1554.14648,654.589844 C1633.33587,658.358177 1759.19504,645.534741 1833.44336,633.740234 C1919.48111,620.072953 1977.84252,599.411645 1948.29688,579.394531" id="Path-140" stroke="#000000" stroke-width="5" sketch:type="MSShapeGroup"></path>
        <path d="M1511.28516,604.824219 L1943.29688,576.816406" id="Path-141" stroke="#000000" stroke-width="5" sketch:type="MSShapeGroup"></path>
        <path d="M1942.0957,612.5 L1942.0957,901.5" id="Path-142" stroke="#000000" stroke-width="5" sketch:type="MSShapeGroup"></path>
        <path d="M531.457031,907.347656 L633.761719,907.347656 C633.761719,907.347656 640.887695,796.800781 640.887695,758.8125 C640.887694,720.824219 615.646031,694.508911 588.566406,686.253906 C588.566406,686.253906 528.605471,698.851563 528.605469,758.8125 C528.605468,818.773438 531.457031,907.347656 531.457031,907.347656 Z" id="Path-143" stroke="#000000" stroke-width="5" fill="#9B9B9B" sketch:type="MSShapeGroup"></path>
        <path d="M836.457031,890.347656 L938.761719,890.347656 C938.761719,890.347656 945.887695,779.800781 945.887695,741.8125 C945.887694,703.824219 920.646031,677.508911 893.566406,669.253906 C893.566406,669.253906 833.605471,681.851563 833.605469,741.8125 C833.605468,801.773438 836.457031,890.347656 836.457031,890.347656 Z" id="Path-143" stroke="#000000" stroke-width="5" fill="#9B9B9B" sketch:type="MSShapeGroup"></path>
        <path d="M1141.45703,867.347656 L1243.76172,867.347656 C1243.76172,867.347656 1250.8877,756.800781 1250.8877,718.8125 C1250.88769,680.824219 1225.64603,654.508911 1198.56641,646.253906 C1198.56641,646.253906 1138.60547,658.851563 1138.60547,718.8125 C1138.60547,778.773438 1141.45703,867.347656 1141.45703,867.347656 Z" id="Path-143" stroke="#000000" stroke-width="5" fill="#9B9B9B" sketch:type="MSShapeGroup"></path>
        <path d="M2034.95437,692.090177 C2034.95437,692.090177 2036.10144,611.314566 2035.53702,584.151266 C2034.9726,556.987967 2025.41387,544.626734 2015.51328,545.675863 C2015.51328,545.675863 1993.80061,569.96212 1993.79746,612.42531 C1993.79432,654.888501 1994.90596,716.922901 1994.90596,716.922901 L2034.95437,692.090177 Z" id="Path-143" stroke="#000000" stroke-width="5" fill="#D8D8D8" sketch:type="MSShapeGroup"></path>
        <path d="M1691.85394,834 L1758.36706,834 C1758.36706,834 1763,762 1763,737.257951 C1763,712.515901 1746.5892,695.376546 1728.98345,690 C1728.98345,690 1690,698.204947 1690,737.257951 C1690,776.310954 1691.85394,834 1691.85394,834 Z" id="Path-143" stroke="#000000" stroke-width="5" fill="#9B9B9B" sketch:type="MSShapeGroup"></path>
        <path d="M177,1000 L191.601695,840.287885 C191.601695,840.287885 200.720339,764.999879 273.686441,765 C273.686441,765 320.533901,770.54797 336,834.417551 L327.067797,991.202982" id="Path-148" stroke="#000000" stroke-width="5" fill="#9B9B9B" sketch:type="MSShapeGroup"></path>
    </g>
</svg>